<svg version="1.1" id="ps_x5F_cc_x5F_app_x5F_RGB.svg" xmlns="http://www.w3.org/2000/svg" x="0" y="0" viewBox="0 0 100 100" xml:space="preserve"><style>.st1{fill:#ff2bc2}</style><path d="M21.6 22.4h56.8v55.3H21.6V22.4z" fill="#2e001e"/><path class="st1" d="M19 19.8v60.4h62V19.8H19zm2.6 2.6h56.8v55.3H21.6V22.4z"/><path class="st1" d="M64 45.2c-.4-.2-.9-.3-1.5-.3-3.3 0-5.4 2.5-5.4 6.7 0 4.8 2.2 6.7 5.1 6.7.6 0 1.3-.1 1.8-.3V45.2zm-11.5 6.6c0-6 3.9-10.7 10.2-10.7.5 0 .8 0 1.3.1v-6.7c0-.2.1-.3.3-.3h4.2c.2 0 .3.1.3.2V58c0 .7 0 1.6.1 2.5 0 .2 0 .2-.2.3-2.2 1-4.4 1.5-6.6 1.5-5.6 0-9.6-3.5-9.6-10.5zm-8.9-4.2l7.2 14c.1.2.1.4-.2.4h-4.5c-.3 0-.4-.1-.5-.3-1.7-3.4-3.3-6.9-5.1-10.6h-.1c-1.5 3.5-3.3 7.2-4.9 10.6-.1.2-.3.3-.5.3h-4.3c-.3 0-.3-.2-.2-.4L37.8 48 31 34.5c-.2-.2 0-.4.2-.4h4.4c.3 0 .4.1.5.3 1.6 3.4 3.3 6.8 4.8 10.3h.1c1.5-3.4 3.2-6.8 4.7-10.2.1-.2.2-.3.5-.3h4.2c.2 0 .3.2.2.4l-7 13z"/></svg>